<svg xmlns="http://www.w3.org/2000/svg" width="159" height="152" viewBox="0 0 159 152">
  <g id="CollapsedLogo" transform="translate(-155 -182)">
    <g id="Intersection_1" data-name="Intersection 1" transform="translate(314 334) rotate(180)" fill="#85ff89">
      <path d="M 156.0003051757813 148.9991912841797 L 50.00040435791016 148.9991912841797 C 43.65399169921875 148.9991912841797 37.49906158447266 147.7569427490234 31.70653915405273 145.3069458007813 C 26.110107421875 142.9398803710938 21.0833797454834 139.5505828857422 16.76599311828613 135.2332000732422 C 12.44863033294678 130.9158172607422 9.059311866760254 125.8891067504883 6.69226598739624 120.2926788330078 C 4.24224328994751 114.5001525878906 2.999993562698364 108.3452224731445 2.999993562698364 101.9988098144531 L 2.999993562698364 47.99881362915039 L 2.999993562698364 2.999107599258423 L 108.9999008178711 2.999107599258423 C 115.1925582885742 2.999107599258423 121.2093811035156 4.183835029602051 126.8831787109375 6.520357608795166 C 132.3645629882813 8.777630805969238 137.3188629150391 12.01815319061279 141.6084442138672 16.15192604064941 C 145.8908386230469 20.27874374389648 149.3101043701172 25.10199356079102 151.7713165283203 30.4876766204834 C 154.3108367919922 36.04476547241211 155.7211456298828 41.97610855102539 155.9630432128906 48.11690139770508 L 156.0003051757813 49.06311416625977 L 156.0003051757813 49.99949264526367 L 156.0003051757813 63.99899291992188 L 156.0003051757813 148.9991912841797 Z" stroke="none"/>
      <path d="M 153.0003051757813 145.9992065429688 L 153.0003051757813 63.99899673461914 L 153.0003051757813 49.99949645996094 L 153.0003051757813 49.12212371826172 L 152.9653625488281 48.23497009277344 C 152.0324096679688 24.55131149291992 132.7204742431641 5.999100685119629 108.9998931884766 5.999100685119629 L 5.99999475479126 5.999100685119629 L 5.99999475479126 47.99880981445313 L 5.99999475479126 101.9988098144531 C 5.99999475479126 126.2607040405273 25.73849487304688 145.9992065429688 50.00038909912109 145.9992065429688 L 153.0003051757813 145.9992065429688 M 159.0003051757813 151.9992065429688 L 50.00038909912109 151.9992065429688 C 22.38570594787598 151.9992065429688 -5.306846105668228e-06 129.613525390625 -5.306846105668228e-06 101.9988098144531 L -5.306846105668228e-06 47.99880981445313 L -5.306846105668228e-06 -0.0008994943927973509 L 108.9998931884766 -0.0008994943927973509 C 135.9441070556641 -0.0008994943927973509 157.9095001220703 21.31288909912109 158.9607086181641 47.99880981445313 L 159.0003051757813 47.99880981445313 L 159.0003051757813 49.99949645996094 L 159.0003051757813 63.99899673461914 L 159.0003051757813 151.9992065429688 Z" stroke="none" fill="#707070"/>
    </g>
    <g id="Rectangle_6" data-name="Rectangle 6" transform="translate(181 219)" fill="#707070" stroke="#707070" stroke-width="1">
      <rect width="108" height="9" rx="4.5" stroke="none"/>
      <rect x="0.5" y="0.5" width="107" height="8" rx="4" fill="none"/>
    </g>
    <g id="Rectangle_7" data-name="Rectangle 7" transform="translate(181 254)" fill="#707070" stroke="#707070" stroke-width="1">
      <rect width="108" height="9" rx="4.5" stroke="none"/>
      <rect x="0.5" y="0.5" width="107" height="8" rx="4" fill="none"/>
    </g>
    <g id="Rectangle_8" data-name="Rectangle 8" transform="translate(181 289)" fill="#707070" stroke="#707070" stroke-width="1">
      <rect width="108" height="9" rx="4.5" stroke="none"/>
      <rect x="0.5" y="0.5" width="107" height="8" rx="4" fill="none"/>
    </g>
  </g>
</svg>
